<?xml version="1.0" encoding="UTF-8" standalone="no"?>
<!DOCTYPE svg PUBLIC "-//W3C//DTD SVG 1.1//EN"
 "http://www.w3.org/Graphics/SVG/1.1/DTD/svg11.dtd">
<!-- Generated by graphviz version 14.1.5 (20260411.2331)
 -->
<!-- Title: G Pages: 1 -->
<svg width="2113pt" height="1426pt"
 viewBox="0.00 0.00 2113.00 1426.00" xmlns="http://www.w3.org/2000/svg" xmlns:xlink="http://www.w3.org/1999/xlink">
<g id="graph0" class="graph" transform="scale(1 1) rotate(0) translate(21.6 1403.96)">
<title>G</title>
<polygon fill="#111111" stroke="none" points="-21.6,21.6 -21.6,-1403.96 2091.85,-1403.96 2091.85,21.6 -21.6,21.6"/>
<!-- App.css -->
<g id="node1" class="node">
<title>App.css</title>
<path fill="none" stroke="#cfffac" d="M432.33,-1136.36C432.33,-1136.36 384.17,-1136.36 384.17,-1136.36 380.21,-1136.36 376.25,-1132.4 376.25,-1128.44 376.25,-1128.44 376.25,-1120.53 376.25,-1120.53 376.25,-1116.57 380.21,-1112.61 384.17,-1112.61 384.17,-1112.61 432.33,-1112.61 432.33,-1112.61 436.29,-1112.61 440.25,-1116.57 440.25,-1120.53 440.25,-1120.53 440.25,-1128.44 440.25,-1128.44 440.25,-1132.4 436.29,-1136.36 432.33,-1136.36"/>
<text xml:space="preserve" text-anchor="middle" x="408.25" y="-1119.06" font-family="Arial" font-size="14.00" fill="#cfffac">App.css</text>
</g>
<!-- App.tsx -->
<g id="node2" class="node">
<title>App.tsx</title>
<path fill="none" stroke="#c6c5fe" d="M286.96,-864.36C286.96,-864.36 241.79,-864.36 241.79,-864.36 237.83,-864.36 233.88,-860.4 233.88,-856.44 233.88,-856.44 233.88,-848.53 233.88,-848.53 233.88,-844.57 237.83,-840.61 241.79,-840.61 241.79,-840.61 286.96,-840.61 286.96,-840.61 290.92,-840.61 294.88,-844.57 294.88,-848.53 294.88,-848.53 294.88,-856.44 294.88,-856.44 294.88,-860.4 290.92,-864.36 286.96,-864.36"/>
<text xml:space="preserve" text-anchor="middle" x="264.38" y="-847.06" font-family="Arial" font-size="14.00" fill="#c6c5fe">App.tsx</text>
</g>
<!-- App.tsx&#45;&gt;App.css -->
<g id="edge1" class="edge">
<title>App.tsx&#45;&gt;App.css</title>
<path fill="none" stroke="#757575" d="M265.26,-864.83C265.55,-904.33 271.8,-1029.04 336.5,-1098.48 344.11,-1106.66 354.51,-1112.27 365,-1116.12"/>
<polygon fill="#757575" stroke="#757575" points="363.81,-1119.42 374.4,-1119.08 365.91,-1112.74 363.81,-1119.42"/>
</g>
<!-- context/AuthContext.tsx -->
<g id="node3" class="node">
<title>context/AuthContext.tsx</title>
<path fill="none" stroke="#c6c5fe" d="M1719.08,-198.36C1719.08,-198.36 1576.42,-198.36 1576.42,-198.36 1572.46,-198.36 1568.5,-194.4 1568.5,-190.44 1568.5,-190.44 1568.5,-182.53 1568.5,-182.53 1568.5,-178.57 1572.46,-174.61 1576.42,-174.61 1576.42,-174.61 1719.08,-174.61 1719.08,-174.61 1723.04,-174.61 1727,-178.57 1727,-182.53 1727,-182.53 1727,-190.44 1727,-190.44 1727,-194.4 1723.04,-198.36 1719.08,-198.36"/>
<text xml:space="preserve" text-anchor="middle" x="1647.75" y="-181.06" font-family="Arial" font-size="14.00" fill="#c6c5fe">context/AuthContext.tsx</text>
</g>
<!-- App.tsx&#45;&gt;context/AuthContext.tsx -->
<g id="edge2" class="edge">
<title>App.tsx&#45;&gt;context/AuthContext.tsx</title>
<path fill="none" stroke="#757575" d="M291,-840.31C294.55,-837.78 297.87,-834.84 300.5,-831.48 334.29,-788.3 317.07,-764.76 336.5,-713.48 427.59,-473.15 361.24,-208.48 618.25,-208.48 618.25,-208.48 618.25,-208.48 871,-208.48 1119.26,-208.48 1412.03,-197.09 1556.62,-190.7"/>
<polygon fill="#757575" stroke="#757575" points="1556.69,-194.2 1566.53,-190.26 1556.38,-187.21 1556.69,-194.2"/>
</g>
<!-- context/LedgerContext.tsx -->
<g id="node4" class="node">
<title>context/LedgerContext.tsx</title>
<path fill="none" stroke="#c6c5fe" d="M1726.21,-798.36C1726.21,-798.36 1569.29,-798.36 1569.29,-798.36 1565.33,-798.36 1561.38,-794.4 1561.38,-790.44 1561.38,-790.44 1561.38,-782.53 1561.38,-782.53 1561.38,-778.57 1565.33,-774.61 1569.29,-774.61 1569.29,-774.61 1726.21,-774.61 1726.21,-774.61 1730.17,-774.61 1734.12,-778.57 1734.12,-782.53 1734.12,-782.53 1734.12,-790.44 1734.12,-790.44 1734.12,-794.4 1730.17,-798.36 1726.21,-798.36"/>
<text xml:space="preserve" text-anchor="middle" x="1647.75" y="-781.06" font-family="Arial" font-size="14.00" fill="#c6c5fe">context/LedgerContext.tsx</text>
</g>
<!-- App.tsx&#45;&gt;context/LedgerContext.tsx -->
<g id="edge3" class="edge">
<title>App.tsx&#45;&gt;context/LedgerContext.tsx</title>
<path fill="none" stroke="#757575" d="M295.33,-847.1C396.49,-829.24 734.94,-772 1017.5,-753.48 1124.71,-746.46 1151.9,-748.92 1259.25,-753.48 1358.42,-757.7 1471.49,-767.96 1549.78,-775.93"/>
<polygon fill="#757575" stroke="#757575" points="1549.27,-779.39 1559.57,-776.93 1549.98,-772.43 1549.27,-779.39"/>
</g>
<!-- hooks/useAuth.ts -->
<g id="node5" class="node">
<title>hooks/useAuth.ts</title>
<path fill="none" stroke="#c6c5fe" d="M1452.21,-140.36C1452.21,-140.36 1348.54,-140.36 1348.54,-140.36 1344.58,-140.36 1340.62,-136.4 1340.62,-132.44 1340.62,-132.44 1340.62,-124.53 1340.62,-124.53 1340.62,-120.57 1344.58,-116.61 1348.54,-116.61 1348.54,-116.61 1452.21,-116.61 1452.21,-116.61 1456.17,-116.61 1460.12,-120.57 1460.12,-124.53 1460.12,-124.53 1460.12,-132.44 1460.12,-132.44 1460.12,-136.4 1456.17,-140.36 1452.21,-140.36"/>
<text xml:space="preserve" text-anchor="middle" x="1400.38" y="-123.06" font-family="Arial" font-size="14.00" fill="#c6c5fe">hooks/useAuth.ts</text>
</g>
<!-- App.tsx&#45;&gt;hooks/useAuth.ts -->
<g id="edge4" class="edge">
<title>App.tsx&#45;&gt;hooks/useAuth.ts</title>
<path fill="none" stroke="#757575" d="M292.43,-840.3C295.61,-837.81 298.44,-834.89 300.5,-831.48 339.01,-767.65 285.47,-215.83 336.5,-161.48 422.8,-69.57 492.17,-128.48 618.25,-128.48 618.25,-128.48 618.25,-128.48 871,-128.48 1035.07,-128.48 1227.79,-128.48 1329.05,-128.48"/>
<polygon fill="#757575" stroke="#757575" points="1328.83,-131.98 1338.83,-128.48 1328.83,-124.98 1328.83,-131.98"/>
</g>
<!-- pages/AuditLogPage.tsx -->
<g id="node6" class="node">
<title>pages/AuditLogPage.tsx</title>
<path fill="none" stroke="#c6c5fe" d="M1211.58,-1194.36C1211.58,-1194.36 1065.17,-1194.36 1065.17,-1194.36 1061.21,-1194.36 1057.25,-1190.4 1057.25,-1186.44 1057.25,-1186.44 1057.25,-1178.53 1057.25,-1178.53 1057.25,-1174.57 1061.21,-1170.61 1065.17,-1170.61 1065.17,-1170.61 1211.58,-1170.61 1211.58,-1170.61 1215.54,-1170.61 1219.5,-1174.57 1219.5,-1178.53 1219.5,-1178.53 1219.5,-1186.44 1219.5,-1186.44 1219.5,-1190.4 1215.54,-1194.36 1211.58,-1194.36"/>
<text xml:space="preserve" text-anchor="middle" x="1138.38" y="-1177.06" font-family="Arial" font-size="14.00" fill="#c6c5fe">pages/AuditLogPage.tsx</text>
</g>
<!-- App.tsx&#45;&gt;pages/AuditLogPage.tsx -->
<g id="edge5" class="edge">
<title>App.tsx&#45;&gt;pages/AuditLogPage.tsx</title>
<path fill="none" stroke="#757575" d="M266.68,-864.69C270.7,-895.44 285.82,-976.22 336.5,-1012.48 453.54,-1096.23 866.23,-984.32 981.5,-1070.48 1016.34,-1096.52 983.78,-1134.01 1017.5,-1161.48 1025.89,-1168.32 1035.72,-1173.26 1046.07,-1176.79"/>
<polygon fill="#757575" stroke="#757575" points="1044.99,-1180.12 1055.57,-1179.56 1046.95,-1173.4 1044.99,-1180.12"/>
</g>
<!-- pages/CreateOrganization.tsx -->
<g id="node7" class="node">
<title>pages/CreateOrganization.tsx</title>
<path fill="none" stroke="#c6c5fe" d="M1228.08,-1236.36C1228.08,-1236.36 1048.67,-1236.36 1048.67,-1236.36 1044.71,-1236.36 1040.75,-1232.4 1040.75,-1228.44 1040.75,-1228.44 1040.75,-1220.53 1040.75,-1220.53 1040.75,-1216.57 1044.71,-1212.61 1048.67,-1212.61 1048.67,-1212.61 1228.08,-1212.61 1228.08,-1212.61 1232.04,-1212.61 1236,-1216.57 1236,-1220.53 1236,-1220.53 1236,-1228.44 1236,-1228.44 1236,-1232.4 1232.04,-1236.36 1228.08,-1236.36"/>
<text xml:space="preserve" text-anchor="middle" x="1138.38" y="-1219.06" font-family="Arial" font-size="14.00" fill="#c6c5fe">pages/CreateOrganization.tsx</text>
</g>
<!-- App.tsx&#45;&gt;pages/CreateOrganization.tsx -->
<g id="edge6" class="edge">
<title>App.tsx&#45;&gt;pages/CreateOrganization.tsx</title>
<path fill="none" stroke="#757575" d="M266.1,-864.42C268.82,-897.97 281.27,-993.81 336.5,-1042.48 390.65,-1090.2 860.09,-1176.28 1054.06,-1210.2"/>
<polygon fill="#757575" stroke="#757575" points="1053.38,-1213.63 1063.83,-1211.9 1054.58,-1206.73 1053.38,-1213.63"/>
</g>
<!-- pages/Dashboard.tsx -->
<g id="node8" class="node">
<title>pages/Dashboard.tsx</title>
<path fill="none" stroke="#c6c5fe" d="M472.08,-746.36C472.08,-746.36 344.42,-746.36 344.42,-746.36 340.46,-746.36 336.5,-742.4 336.5,-738.44 336.5,-738.44 336.5,-730.53 336.5,-730.53 336.5,-726.57 340.46,-722.61 344.42,-722.61 344.42,-722.61 472.08,-722.61 472.08,-722.61 476.04,-722.61 480,-726.57 480,-730.53 480,-730.53 480,-738.44 480,-738.44 480,-742.4 476.04,-746.36 472.08,-746.36"/>
<text xml:space="preserve" text-anchor="middle" x="408.25" y="-729.06" font-family="Arial" font-size="14.00" fill="#c6c5fe">pages/Dashboard.tsx</text>
</g>
<!-- App.tsx&#45;&gt;pages/Dashboard.tsx -->
<g id="edge7" class="edge">
<title>App.tsx&#45;&gt;pages/Dashboard.tsx</title>
<path fill="none" stroke="#757575" d="M287.36,-840.26C291.82,-837.53 296.39,-834.53 300.5,-831.48 332.88,-807.47 366.75,-775.29 387.44,-754.72"/>
<polygon fill="#757575" stroke="#757575" points="389.81,-757.3 394.38,-747.75 384.85,-752.36 389.81,-757.3"/>
</g>
<!-- pages/LoginPage.tsx -->
<g id="node9" class="node">
<title>pages/LoginPage.tsx</title>
<path fill="none" stroke="#c6c5fe" d="M1201.46,-180.36C1201.46,-180.36 1075.29,-180.36 1075.29,-180.36 1071.33,-180.36 1067.38,-176.4 1067.38,-172.44 1067.38,-172.44 1067.38,-164.53 1067.38,-164.53 1067.38,-160.57 1071.33,-156.61 1075.29,-156.61 1075.29,-156.61 1201.46,-156.61 1201.46,-156.61 1205.42,-156.61 1209.38,-160.57 1209.38,-164.53 1209.38,-164.53 1209.38,-172.44 1209.38,-172.44 1209.38,-176.4 1205.42,-180.36 1201.46,-180.36"/>
<text xml:space="preserve" text-anchor="middle" x="1138.38" y="-163.06" font-family="Arial" font-size="14.00" fill="#c6c5fe">pages/LoginPage.tsx</text>
</g>
<!-- App.tsx&#45;&gt;pages/LoginPage.tsx -->
<g id="edge8" class="edge">
<title>App.tsx&#45;&gt;pages/LoginPage.tsx</title>
<path fill="none" stroke="#757575" d="M292.42,-840.29C295.6,-837.81 298.44,-834.89 300.5,-831.48 337.2,-770.83 285.77,-244.01 336.5,-194.48 387.07,-145.12 861.95,-157.74 1055.68,-165.05"/>
<polygon fill="#757575" stroke="#757575" points="1055.28,-168.53 1065.41,-165.42 1055.55,-161.54 1055.28,-168.53"/>
</g>
<!-- pages/OrganizationsPage.tsx -->
<g id="node10" class="node">
<title>pages/OrganizationsPage.tsx</title>
<path fill="none" stroke="#c6c5fe" d="M1226.96,-1152.36C1226.96,-1152.36 1049.79,-1152.36 1049.79,-1152.36 1045.83,-1152.36 1041.88,-1148.4 1041.88,-1144.44 1041.88,-1144.44 1041.88,-1136.53 1041.88,-1136.53 1041.88,-1132.57 1045.83,-1128.61 1049.79,-1128.61 1049.79,-1128.61 1226.96,-1128.61 1226.96,-1128.61 1230.92,-1128.61 1234.88,-1132.57 1234.88,-1136.53 1234.88,-1136.53 1234.88,-1144.44 1234.88,-1144.44 1234.88,-1148.4 1230.92,-1152.36 1226.96,-1152.36"/>
<text xml:space="preserve" text-anchor="middle" x="1138.38" y="-1135.06" font-family="Arial" font-size="14.00" fill="#c6c5fe">pages/OrganizationsPage.tsx</text>
</g>
<!-- App.tsx&#45;&gt;pages/OrganizationsPage.tsx -->
<g id="edge9" class="edge">
<title>App.tsx&#45;&gt;pages/OrganizationsPage.tsx</title>
<path fill="none" stroke="#757575" d="M267.83,-864.6C273.98,-891.52 292.82,-956.15 336.5,-984.48 457.08,-1062.7 864.16,-949.48 981.5,-1032.48 1013.99,-1055.47 986.69,-1089.29 1017.5,-1114.48 1021.76,-1117.97 1026.38,-1121.01 1031.24,-1123.67"/>
<polygon fill="#757575" stroke="#757575" points="1029.64,-1126.78 1040.17,-1127.95 1032.66,-1120.47 1029.64,-1126.78"/>
</g>
<!-- pages/UploadReceiptPage.tsx -->
<g id="node11" class="node">
<title>pages/UploadReceiptPage.tsx</title>
<path fill="none" stroke="#c6c5fe" d="M710.08,-81.36C710.08,-81.36 528.42,-81.36 528.42,-81.36 524.46,-81.36 520.5,-77.4 520.5,-73.44 520.5,-73.44 520.5,-65.53 520.5,-65.53 520.5,-61.57 524.46,-57.61 528.42,-57.61 528.42,-57.61 710.08,-57.61 710.08,-57.61 714.04,-57.61 718,-61.57 718,-65.53 718,-65.53 718,-73.44 718,-73.44 718,-77.4 714.04,-81.36 710.08,-81.36"/>
<text xml:space="preserve" text-anchor="middle" x="619.25" y="-64.06" font-family="Arial" font-size="14.00" fill="#c6c5fe">pages/UploadReceiptPage.tsx</text>
</g>
<!-- App.tsx&#45;&gt;pages/UploadReceiptPage.tsx -->
<g id="edge10" class="edge">
<title>App.tsx&#45;&gt;pages/UploadReceiptPage.tsx</title>
<path fill="none" stroke="#757575" d="M292.44,-840.3C295.62,-837.82 298.45,-834.89 300.5,-831.48 341.58,-763.11 283.23,-173.86 336.5,-114.48 380.49,-65.46 454.8,-55.22 516.06,-56.71"/>
<polygon fill="#757575" stroke="#757575" points="515.7,-60.19 525.82,-57.06 515.96,-53.2 515.7,-60.19"/>
</g>
<!-- config/firebase.ts -->
<g id="node14" class="node">
<title>config/firebase.ts</title>
<path fill="none" stroke="#cfffac" d="M1913.96,-370.36C1913.96,-370.36 1811.79,-370.36 1811.79,-370.36 1807.83,-370.36 1803.88,-366.4 1803.88,-362.44 1803.88,-362.44 1803.88,-354.53 1803.88,-354.53 1803.88,-350.57 1807.83,-346.61 1811.79,-346.61 1811.79,-346.61 1913.96,-346.61 1913.96,-346.61 1917.92,-346.61 1921.88,-350.57 1921.88,-354.53 1921.88,-354.53 1921.88,-362.44 1921.88,-362.44 1921.88,-366.4 1917.92,-370.36 1913.96,-370.36"/>
<text xml:space="preserve" text-anchor="middle" x="1862.88" y="-353.06" font-family="Arial" font-size="14.00" fill="#cfffac">config/firebase.ts</text>
</g>
<!-- context/AuthContext.tsx&#45;&gt;config/firebase.ts -->
<g id="edge41" class="edge">
<title>context/AuthContext.tsx&#45;&gt;config/firebase.ts</title>
<path fill="none" stroke="#757575" d="M1690.59,-198.82C1710.92,-206.05 1735,-216.54 1754,-230.48 1794.72,-260.37 1829.87,-308.67 1848.24,-336.61"/>
<polygon fill="#757575" stroke="#757575" points="1845.27,-338.45 1853.62,-344.97 1851.15,-334.67 1845.27,-338.45"/>
</g>
<!-- context/LedgerContext.tsx&#45;&gt;config/firebase.ts -->
<g id="edge42" class="edge">
<title>context/LedgerContext.tsx&#45;&gt;config/firebase.ts</title>
<path fill="none" stroke="#757575" d="M1660.33,-774.39C1681.4,-751.82 1726.41,-701.09 1754,-651.48 1806.32,-557.39 1842.39,-432.93 1855.93,-381.86"/>
<polygon fill="#757575" stroke="#757575" points="1859.3,-382.81 1858.44,-372.25 1852.53,-381.04 1859.3,-382.81"/>
</g>
<!-- types/index.ts -->
<g id="node16" class="node">
<title>types/index.ts</title>
<path fill="none" stroke="#cfffac" d="M2062.33,-857.36C2062.33,-857.36 1979.67,-857.36 1979.67,-857.36 1975.71,-857.36 1971.75,-853.4 1971.75,-849.44 1971.75,-849.44 1971.75,-841.53 1971.75,-841.53 1971.75,-837.57 1975.71,-833.61 1979.67,-833.61 1979.67,-833.61 2062.33,-833.61 2062.33,-833.61 2066.29,-833.61 2070.25,-837.57 2070.25,-841.53 2070.25,-841.53 2070.25,-849.44 2070.25,-849.44 2070.25,-853.4 2066.29,-857.36 2062.33,-857.36"/>
<text xml:space="preserve" text-anchor="middle" x="2021" y="-840.06" font-family="Arial" font-size="14.00" fill="#cfffac">types/index.ts</text>
</g>
<!-- context/LedgerContext.tsx&#45;&gt;types/index.ts -->
<g id="edge43" class="edge">
<title>context/LedgerContext.tsx&#45;&gt;types/index.ts</title>
<path fill="none" stroke="#757575" d="M1726.58,-798.85C1796.28,-809.93 1897.01,-825.94 1960.47,-836.02"/>
<polygon fill="#757575" stroke="#757575" points="1959.56,-839.42 1969.98,-837.54 1960.66,-832.51 1959.56,-839.42"/>
</g>
<!-- utilities/calculations.ts -->
<g id="node19" class="node">
<title>utilities/calculations.ts</title>
<path fill="none" stroke="#c6c5fe" d="M1927.83,-798.36C1927.83,-798.36 1797.92,-798.36 1797.92,-798.36 1793.96,-798.36 1790,-794.4 1790,-790.44 1790,-790.44 1790,-782.53 1790,-782.53 1790,-778.57 1793.96,-774.61 1797.92,-774.61 1797.92,-774.61 1927.83,-774.61 1927.83,-774.61 1931.79,-774.61 1935.75,-778.57 1935.75,-782.53 1935.75,-782.53 1935.75,-790.44 1935.75,-790.44 1935.75,-794.4 1931.79,-798.36 1927.83,-798.36"/>
<text xml:space="preserve" text-anchor="middle" x="1862.88" y="-781.06" font-family="Arial" font-size="14.00" fill="#c6c5fe">utilities/calculations.ts</text>
</g>
<!-- context/LedgerContext.tsx&#45;&gt;utilities/calculations.ts -->
<g id="edge44" class="edge">
<title>context/LedgerContext.tsx&#45;&gt;utilities/calculations.ts</title>
<path fill="none" stroke="#757575" d="M1734.51,-786.48C1748.94,-786.48 1763.88,-786.48 1778.25,-786.48"/>
<polygon fill="#757575" stroke="#757575" points="1778.11,-789.98 1788.11,-786.48 1778.11,-782.98 1778.11,-789.98"/>
</g>
<!-- hooks/useAuth.ts&#45;&gt;context/AuthContext.tsx -->
<g id="edge45" class="edge">
<title>hooks/useAuth.ts&#45;&gt;context/AuthContext.tsx</title>
<path fill="none" stroke="#757575" d="M1453.71,-140.86C1491.67,-149.83 1543.18,-162 1583.45,-171.52"/>
<polygon fill="#757575" stroke="#757575" points="1582.48,-174.89 1593.02,-173.78 1584.09,-168.08 1582.48,-174.89"/>
</g>
<!-- hooks/useLedger.ts -->
<g id="node15" class="node">
<title>hooks/useLedger.ts</title>
<path fill="none" stroke="#c6c5fe" d="M1458.96,-952.36C1458.96,-952.36 1341.79,-952.36 1341.79,-952.36 1337.83,-952.36 1333.88,-948.4 1333.88,-944.44 1333.88,-944.44 1333.88,-936.53 1333.88,-936.53 1333.88,-932.57 1337.83,-928.61 1341.79,-928.61 1341.79,-928.61 1458.96,-928.61 1458.96,-928.61 1462.92,-928.61 1466.88,-932.57 1466.88,-936.53 1466.88,-936.53 1466.88,-944.44 1466.88,-944.44 1466.88,-948.4 1462.92,-952.36 1458.96,-952.36"/>
<text xml:space="preserve" text-anchor="middle" x="1400.38" y="-935.06" font-family="Arial" font-size="14.00" fill="#c6c5fe">hooks/useLedger.ts</text>
</g>
<!-- pages/AuditLogPage.tsx&#45;&gt;hooks/useLedger.ts -->
<g id="edge54" class="edge">
<title>pages/AuditLogPage.tsx&#45;&gt;hooks/useLedger.ts</title>
<path fill="none" stroke="#757575" d="M1219.99,-1177.84C1233.87,-1174.47 1247.57,-1169.3 1259.25,-1161.48 1332.91,-1112.21 1375.67,-1009.71 1391.86,-963.71"/>
<polygon fill="#757575" stroke="#757575" points="1395.17,-964.84 1395.08,-954.24 1388.54,-962.58 1395.17,-964.84"/>
</g>
<!-- pages/AuditLogPage.tsx&#45;&gt;types/index.ts -->
<g id="edge55" class="edge">
<title>pages/AuditLogPage.tsx&#45;&gt;types/index.ts</title>
<path fill="none" stroke="#757575" d="M1219.73,-1190.65C1401.99,-1207.23 1838.5,-1235.31 1935.75,-1135.48 2009.42,-1059.87 2019.32,-923.79 2020.19,-869.15"/>
<polygon fill="#757575" stroke="#757575" points="2023.69,-869.18 2020.25,-859.16 2016.69,-869.14 2023.69,-869.18"/>
</g>
<!-- components/TopNav.tsx -->
<g id="node27" class="node">
<title>components/TopNav.tsx</title>
<path fill="none" stroke="#c6c5fe" d="M1472.46,-1184.36C1472.46,-1184.36 1328.29,-1184.36 1328.29,-1184.36 1324.33,-1184.36 1320.38,-1180.4 1320.38,-1176.44 1320.38,-1176.44 1320.38,-1168.53 1320.38,-1168.53 1320.38,-1164.57 1324.33,-1160.61 1328.29,-1160.61 1328.29,-1160.61 1472.46,-1160.61 1472.46,-1160.61 1476.42,-1160.61 1480.38,-1164.57 1480.38,-1168.53 1480.38,-1168.53 1480.38,-1176.44 1480.38,-1176.44 1480.38,-1180.4 1476.42,-1184.36 1472.46,-1184.36"/>
<text xml:space="preserve" text-anchor="middle" x="1400.38" y="-1167.06" font-family="Arial" font-size="14.00" fill="#c6c5fe">components/TopNav.tsx</text>
</g>
<!-- pages/AuditLogPage.tsx&#45;&gt;components/TopNav.tsx -->
<g id="edge53" class="edge">
<title>pages/AuditLogPage.tsx&#45;&gt;components/TopNav.tsx</title>
<path fill="none" stroke="#757575" d="M1219.86,-1179.39C1248.04,-1178.3 1279.86,-1177.08 1308.8,-1175.97"/>
<polygon fill="#757575" stroke="#757575" points="1308.79,-1179.47 1318.65,-1175.59 1308.52,-1172.48 1308.79,-1179.47"/>
</g>
<!-- pages/CreateOrganization.tsx&#45;&gt;hooks/useLedger.ts -->
<g id="edge57" class="edge">
<title>pages/CreateOrganization.tsx&#45;&gt;hooks/useLedger.ts</title>
<path fill="none" stroke="#757575" d="M1236.47,-1215.57C1244.59,-1212.47 1252.32,-1208.51 1259.25,-1203.48 1281.04,-1187.69 1359.99,-1023.8 1388.78,-963.01"/>
<polygon fill="#757575" stroke="#757575" points="1391.94,-964.52 1393.04,-953.98 1385.61,-961.53 1391.94,-964.52"/>
</g>
<!-- pages/CreateOrganization.tsx&#45;&gt;types/index.ts -->
<g id="edge58" class="edge">
<title>pages/CreateOrganization.tsx&#45;&gt;types/index.ts</title>
<path fill="none" stroke="#757575" d="M1155.02,-1236.86C1181.84,-1257.2 1239.16,-1296.89 1295.25,-1311.48 1576.71,-1384.71 1735.67,-1388.55 1935.75,-1177.48 1978.79,-1132.08 2007.99,-937.04 2017.03,-869.01"/>
<polygon fill="#757575" stroke="#757575" points="2020.47,-869.72 2018.29,-859.35 2013.53,-868.81 2020.47,-869.72"/>
</g>
<!-- pages/CreateOrganization.tsx&#45;&gt;utilities/calculations.ts -->
<g id="edge59" class="edge">
<title>pages/CreateOrganization.tsx&#45;&gt;utilities/calculations.ts</title>
<path fill="none" stroke="#757575" d="M1236.33,-1232.94C1389.27,-1244.14 1677.06,-1255.83 1754,-1193.48 1815.32,-1143.79 1849.95,-888.33 1859.28,-809.61"/>
<polygon fill="#757575" stroke="#757575" points="1862.72,-810.39 1860.39,-800.05 1855.76,-809.58 1862.72,-810.39"/>
</g>
<!-- pages/CreateOrganization.tsx&#45;&gt;components/TopNav.tsx -->
<g id="edge56" class="edge">
<title>pages/CreateOrganization.tsx&#45;&gt;components/TopNav.tsx</title>
<path fill="none" stroke="#757575" d="M1213.01,-1212.11C1228.32,-1209.39 1244.33,-1206.44 1259.25,-1203.48 1284.15,-1198.55 1311.42,-1192.64 1335.23,-1187.3"/>
<polygon fill="#757575" stroke="#757575" points="1335.8,-1190.76 1344.78,-1185.15 1334.26,-1183.93 1335.8,-1190.76"/>
</g>
<!-- utilities/parseBudgetAllocation.ts -->
<g id="node35" class="node">
<title>utilities/parseBudgetAllocation.ts</title>
<path fill="none" stroke="#cfffac" d="M1497.58,-1302.36C1497.58,-1302.36 1303.17,-1302.36 1303.17,-1302.36 1299.21,-1302.36 1295.25,-1298.4 1295.25,-1294.44 1295.25,-1294.44 1295.25,-1286.53 1295.25,-1286.53 1295.25,-1282.57 1299.21,-1278.61 1303.17,-1278.61 1303.17,-1278.61 1497.58,-1278.61 1497.58,-1278.61 1501.54,-1278.61 1505.5,-1282.57 1505.5,-1286.53 1505.5,-1286.53 1505.5,-1294.44 1505.5,-1294.44 1505.5,-1298.4 1501.54,-1302.36 1497.58,-1302.36"/>
<text xml:space="preserve" text-anchor="middle" x="1400.38" y="-1285.06" font-family="Arial" font-size="14.00" fill="#cfffac">utilities/parseBudgetAllocation.ts</text>
</g>
<!-- pages/CreateOrganization.tsx&#45;&gt;utilities/parseBudgetAllocation.ts -->
<g id="edge60" class="edge">
<title>pages/CreateOrganization.tsx&#45;&gt;utilities/parseBudgetAllocation.ts</title>
<path fill="none" stroke="#757575" d="M1187.11,-1236.82C1217.95,-1244.77 1258.96,-1255.3 1295.25,-1264.48 1309.22,-1268.02 1324.25,-1271.79 1338.42,-1275.34"/>
<polygon fill="#757575" stroke="#757575" points="1337.55,-1278.73 1348.1,-1277.75 1339.25,-1271.93 1337.55,-1278.73"/>
</g>
<!-- pages/Dashboard.tsx&#45;&gt;hooks/useLedger.ts -->
<g id="edge64" class="edge">
<title>pages/Dashboard.tsx&#45;&gt;hooks/useLedger.ts</title>
<path fill="none" stroke="#757575" d="M441.6,-746.82C531.42,-780.46 792.05,-873.96 1017.5,-914.48 1122.07,-933.28 1244.98,-938.74 1322.53,-940.19"/>
<polygon fill="#757575" stroke="#757575" points="1322.06,-943.68 1332.12,-940.35 1322.18,-936.68 1322.06,-943.68"/>
</g>
<!-- pages/Dashboard.tsx&#45;&gt;types/index.ts -->
<g id="edge65" class="edge">
<title>pages/Dashboard.tsx&#45;&gt;types/index.ts</title>
<path fill="none" stroke="#757575" d="M421.4,-746.65C440.24,-764.97 478.28,-799.8 516,-821.48 611.81,-876.56 901.77,-919.96 981.5,-996.48 1011.1,-1024.89 983.3,-1058.83 1017.5,-1081.48 1103.06,-1138.16 1852.94,-1042.12 1935.75,-981.48 1975.29,-952.53 2000.35,-898.88 2012.11,-868.33"/>
<polygon fill="#757575" stroke="#757575" points="2015.27,-869.87 2015.44,-859.27 2008.7,-867.45 2015.27,-869.87"/>
</g>
<!-- pages/Dashboard.tsx&#45;&gt;utilities/calculations.ts -->
<g id="edge66" class="edge">
<title>pages/Dashboard.tsx&#45;&gt;utilities/calculations.ts</title>
<path fill="none" stroke="#757575" d="M480.41,-732.32C593.96,-728.97 823.16,-722.72 1017.5,-720.48 1345.42,-716.71 1429.33,-719.24 1754,-765.48 1766.64,-767.28 1780.04,-769.58 1792.94,-771.98"/>
<polygon fill="#757575" stroke="#757575" points="1792.15,-775.4 1802.63,-773.83 1793.46,-768.52 1792.15,-775.4"/>
</g>
<!-- components/ReconciliationModal.tsx -->
<g id="node24" class="node">
<title>components/ReconciliationModal.tsx</title>
<path fill="none" stroke="#c6c5fe" d="M1248.71,-486.36C1248.71,-486.36 1028.04,-486.36 1028.04,-486.36 1024.08,-486.36 1020.12,-482.4 1020.12,-478.44 1020.12,-478.44 1020.12,-470.53 1020.12,-470.53 1020.12,-466.57 1024.08,-462.61 1028.04,-462.61 1028.04,-462.61 1248.71,-462.61 1248.71,-462.61 1252.67,-462.61 1256.62,-466.57 1256.62,-470.53 1256.62,-470.53 1256.62,-478.44 1256.62,-478.44 1256.62,-482.4 1252.67,-486.36 1248.71,-486.36"/>
<text xml:space="preserve" text-anchor="middle" x="1138.38" y="-469.06" font-family="Arial" font-size="14.00" fill="#c6c5fe">components/ReconciliationModal.tsx</text>
</g>
<!-- pages/Dashboard.tsx&#45;&gt;components/ReconciliationModal.tsx -->
<g id="edge61" class="edge">
<title>pages/Dashboard.tsx&#45;&gt;components/ReconciliationModal.tsx</title>
<path fill="none" stroke="#757575" d="M413.23,-722.35C424.18,-690.88 457.89,-606.16 516,-563.48 667.28,-452.38 896.26,-450.49 1029.91,-461.15"/>
<polygon fill="#757575" stroke="#757575" points="1029.58,-464.63 1039.84,-461.98 1030.17,-457.66 1029.58,-464.63"/>
</g>
<!-- components/TransactionList.tsx -->
<g id="node30" class="node">
<title>components/TransactionList.tsx</title>
<path fill="none" stroke="#c6c5fe" d="M714.58,-596.36C714.58,-596.36 523.92,-596.36 523.92,-596.36 519.96,-596.36 516,-592.4 516,-588.44 516,-588.44 516,-580.53 516,-580.53 516,-576.57 519.96,-572.61 523.92,-572.61 523.92,-572.61 714.58,-572.61 714.58,-572.61 718.54,-572.61 722.5,-576.57 722.5,-580.53 722.5,-580.53 722.5,-588.44 722.5,-588.44 722.5,-592.4 718.54,-596.36 714.58,-596.36"/>
<text xml:space="preserve" text-anchor="middle" x="619.25" y="-579.06" font-family="Arial" font-size="14.00" fill="#c6c5fe">components/TransactionList.tsx</text>
</g>
<!-- pages/Dashboard.tsx&#45;&gt;components/TransactionList.tsx -->
<g id="edge62" class="edge">
<title>pages/Dashboard.tsx&#45;&gt;components/TransactionList.tsx</title>
<path fill="none" stroke="#757575" d="M426.35,-722.21C462.88,-695.99 548.71,-634.4 592.12,-603.24"/>
<polygon fill="#757575" stroke="#757575" points="593.89,-606.28 599.97,-597.6 589.81,-600.59 593.89,-606.28"/>
</g>
<!-- components/TransactionModal.tsx -->
<g id="node31" class="node">
<title>components/TransactionModal.tsx</title>
<path fill="none" stroke="#c6c5fe" d="M973.58,-362.36C973.58,-362.36 766.42,-362.36 766.42,-362.36 762.46,-362.36 758.5,-358.4 758.5,-354.44 758.5,-354.44 758.5,-346.53 758.5,-346.53 758.5,-342.57 762.46,-338.61 766.42,-338.61 766.42,-338.61 973.58,-338.61 973.58,-338.61 977.54,-338.61 981.5,-342.57 981.5,-346.53 981.5,-346.53 981.5,-354.44 981.5,-354.44 981.5,-358.4 977.54,-362.36 973.58,-362.36"/>
<text xml:space="preserve" text-anchor="middle" x="870" y="-345.06" font-family="Arial" font-size="14.00" fill="#c6c5fe">components/TransactionModal.tsx</text>
</g>
<!-- pages/Dashboard.tsx&#45;&gt;components/TransactionModal.tsx -->
<g id="edge63" class="edge">
<title>pages/Dashboard.tsx&#45;&gt;components/TransactionModal.tsx</title>
<path fill="none" stroke="#757575" d="M411.01,-722.4C419.59,-665.18 459.01,-422.31 516,-376.48 598.96,-309.78 731.28,-321.44 808.17,-335.96"/>
<polygon fill="#757575" stroke="#757575" points="807.13,-339.32 817.62,-337.82 808.49,-332.45 807.13,-339.32"/>
</g>
<!-- pages/LoginPage.tsx&#45;&gt;context/AuthContext.tsx -->
<g id="edge68" class="edge">
<title>pages/LoginPage.tsx&#45;&gt;context/AuthContext.tsx</title>
<path fill="none" stroke="#757575" d="M1209.66,-170.98C1300.21,-174.19 1457.73,-179.78 1556.89,-183.3"/>
<polygon fill="#757575" stroke="#757575" points="1556.76,-186.79 1566.88,-183.65 1557.01,-179.8 1556.76,-186.79"/>
</g>
<!-- pages/LoginPage.tsx&#45;&gt;hooks/useAuth.ts -->
<g id="edge69" class="edge">
<title>pages/LoginPage.tsx&#45;&gt;hooks/useAuth.ts</title>
<path fill="none" stroke="#757575" d="M1209.73,-157.66C1246.81,-151.96 1292.14,-144.98 1329.18,-139.28"/>
<polygon fill="#757575" stroke="#757575" points="1329.55,-142.77 1338.9,-137.79 1328.49,-135.85 1329.55,-142.77"/>
</g>
<!-- pages/LoginPage.tsx&#45;&gt;config/firebase.ts -->
<g id="edge67" class="edge">
<title>pages/LoginPage.tsx&#45;&gt;config/firebase.ts</title>
<path fill="none" stroke="#757575" d="M1186.22,-180.8C1313.49,-214.27 1665.33,-306.8 1804.32,-343.35"/>
<polygon fill="#757575" stroke="#757575" points="1803.11,-346.65 1813.67,-345.81 1804.89,-339.88 1803.11,-346.65"/>
</g>
<!-- pages/OrganizationsPage.tsx&#45;&gt;hooks/useLedger.ts -->
<g id="edge71" class="edge">
<title>pages/OrganizationsPage.tsx&#45;&gt;hooks/useLedger.ts</title>
<path fill="none" stroke="#757575" d="M1171.52,-1128.11C1196.62,-1117.65 1231.75,-1101.24 1259.25,-1081.48 1309.33,-1045.51 1357.76,-991.07 1382.45,-961.46"/>
<polygon fill="#757575" stroke="#757575" points="1384.98,-963.89 1388.64,-953.95 1379.58,-959.44 1384.98,-963.89"/>
</g>
<!-- pages/OrganizationsPage.tsx&#45;&gt;types/index.ts -->
<g id="edge72" class="edge">
<title>pages/OrganizationsPage.tsx&#45;&gt;types/index.ts</title>
<path fill="none" stroke="#757575" d="M1235.09,-1142.69C1434.66,-1146.42 1881.24,-1149.96 1935.75,-1108.48 2012.22,-1050.29 2020.59,-922 2020.62,-869.05"/>
<polygon fill="#757575" stroke="#757575" points="2024.13,-869.32 2020.52,-859.36 2017.13,-869.4 2024.13,-869.32"/>
</g>
<!-- pages/OrganizationsPage.tsx&#45;&gt;components/TopNav.tsx -->
<g id="edge70" class="edge">
<title>pages/OrganizationsPage.tsx&#45;&gt;components/TopNav.tsx</title>
<path fill="none" stroke="#757575" d="M1235.08,-1152.26C1259.21,-1155.23 1285.03,-1158.41 1308.89,-1161.35"/>
<polygon fill="#757575" stroke="#757575" points="1308.21,-1164.79 1318.56,-1162.54 1309.06,-1157.84 1308.21,-1164.79"/>
</g>
<!-- pages/UploadReceiptPage.tsx&#45;&gt;config/firebase.ts -->
<g id="edge77" class="edge">
<title>pages/UploadReceiptPage.tsx&#45;&gt;config/firebase.ts</title>
<path fill="none" stroke="#757575" d="M669.08,-57.13C839.01,-17.21 1412.7,91.4 1754,-165.48 1812.21,-209.3 1843.41,-294.25 1855.65,-335.24"/>
<polygon fill="#757575" stroke="#757575" points="1852.26,-336.12 1858.37,-344.78 1858.99,-334.2 1852.26,-336.12"/>
</g>
<!-- app.test.tsx -->
<g id="node12" class="node">
<title>app.test.tsx</title>
<path fill="none" stroke="#c6c5fe" d="M130.71,-864.36C130.71,-864.36 61.54,-864.36 61.54,-864.36 57.58,-864.36 53.62,-860.4 53.62,-856.44 53.62,-856.44 53.62,-848.53 53.62,-848.53 53.62,-844.57 57.58,-840.61 61.54,-840.61 61.54,-840.61 130.71,-840.61 130.71,-840.61 134.67,-840.61 138.62,-844.57 138.62,-848.53 138.62,-848.53 138.62,-856.44 138.62,-856.44 138.62,-860.4 134.67,-864.36 130.71,-864.36"/>
<text xml:space="preserve" text-anchor="middle" x="96.12" y="-847.06" font-family="Arial" font-size="14.00" fill="#c6c5fe">app.test.tsx</text>
</g>
<!-- app.test.tsx&#45;&gt;App.tsx -->
<g id="edge11" class="edge">
<title>app.test.tsx&#45;&gt;App.tsx</title>
<path fill="none" stroke="#757575" d="M139.08,-852.48C164.49,-852.48 196.77,-852.48 222.06,-852.48"/>
<polygon fill="#757575" stroke="#757575" points="221.98,-855.98 231.98,-852.48 221.98,-848.98 221.98,-855.98"/>
</g>
<!-- components/AddTransactionForm.tsx -->
<g id="node13" class="node">
<title>components/AddTransactionForm.tsx</title>
<path fill="none" stroke="#c6c5fe" d="M1251.33,-362.36C1251.33,-362.36 1025.42,-362.36 1025.42,-362.36 1021.46,-362.36 1017.5,-358.4 1017.5,-354.44 1017.5,-354.44 1017.5,-346.53 1017.5,-346.53 1017.5,-342.57 1021.46,-338.61 1025.42,-338.61 1025.42,-338.61 1251.33,-338.61 1251.33,-338.61 1255.29,-338.61 1259.25,-342.57 1259.25,-346.53 1259.25,-346.53 1259.25,-354.44 1259.25,-354.44 1259.25,-358.4 1255.29,-362.36 1251.33,-362.36"/>
<text xml:space="preserve" text-anchor="middle" x="1138.38" y="-345.06" font-family="Arial" font-size="14.00" fill="#c6c5fe">components/AddTransactionForm.tsx</text>
</g>
<!-- components/AddTransactionForm.tsx&#45;&gt;config/firebase.ts -->
<g id="edge12" class="edge">
<title>components/AddTransactionForm.tsx&#45;&gt;config/firebase.ts</title>
<path fill="none" stroke="#757575" d="M1259.49,-351.81C1411.68,-353.5 1668.94,-356.35 1792.09,-357.71"/>
<polygon fill="#757575" stroke="#757575" points="1792.03,-361.21 1802.07,-357.82 1792.11,-354.21 1792.03,-361.21"/>
</g>
<!-- components/AddTransactionForm.tsx&#45;&gt;hooks/useLedger.ts -->
<g id="edge13" class="edge">
<title>components/AddTransactionForm.tsx&#45;&gt;hooks/useLedger.ts</title>
<path fill="none" stroke="#757575" d="M1159.99,-362.76C1186.82,-379.78 1233.32,-413.07 1259.25,-453.48 1360.32,-610.97 1390.17,-842.94 1397.38,-916.91"/>
<polygon fill="#757575" stroke="#757575" points="1393.87,-916.98 1398.27,-926.61 1400.84,-916.33 1393.87,-916.98"/>
</g>
<!-- components/AddTransactionForm.tsx&#45;&gt;types/index.ts -->
<g id="edge14" class="edge">
<title>components/AddTransactionForm.tsx&#45;&gt;types/index.ts</title>
<path fill="none" stroke="#757575" d="M1167.36,-338.2C1280.82,-290.52 1711.1,-130.31 1935.75,-337.48 2008.01,-404.13 2018.29,-731.17 2019.76,-822.03"/>
<polygon fill="#757575" stroke="#757575" points="2016.26,-821.98 2019.89,-831.93 2023.26,-821.89 2016.26,-821.98"/>
</g>
<!-- utilities/parseReceipt.ts -->
<g id="node17" class="node">
<title>utilities/parseReceipt.ts</title>
<path fill="none" stroke="#cfffac" d="M1469.83,-334.36C1469.83,-334.36 1330.92,-334.36 1330.92,-334.36 1326.96,-334.36 1323,-330.4 1323,-326.44 1323,-326.44 1323,-318.53 1323,-318.53 1323,-314.57 1326.96,-310.61 1330.92,-310.61 1330.92,-310.61 1469.83,-310.61 1469.83,-310.61 1473.79,-310.61 1477.75,-314.57 1477.75,-318.53 1477.75,-318.53 1477.75,-326.44 1477.75,-326.44 1477.75,-330.4 1473.79,-334.36 1469.83,-334.36"/>
<text xml:space="preserve" text-anchor="middle" x="1400.38" y="-317.06" font-family="Arial" font-size="14.00" fill="#cfffac">utilities/parseReceipt.ts</text>
</g>
<!-- components/AddTransactionForm.tsx&#45;&gt;utilities/parseReceipt.ts -->
<g id="edge15" class="edge">
<title>components/AddTransactionForm.tsx&#45;&gt;utilities/parseReceipt.ts</title>
<path fill="none" stroke="#757575" d="M1254.17,-338.12C1273.32,-336.06 1292.92,-333.95 1311.27,-331.97"/>
<polygon fill="#757575" stroke="#757575" points="1311.45,-335.47 1321.02,-330.92 1310.7,-328.51 1311.45,-335.47"/>
</g>
<!-- hooks/useLedger.ts&#45;&gt;context/LedgerContext.tsx -->
<g id="edge46" class="edge">
<title>hooks/useLedger.ts&#45;&gt;context/LedgerContext.tsx</title>
<path fill="none" stroke="#757575" d="M1421.04,-928.14C1464.13,-901.1 1567.05,-836.5 1617.65,-804.74"/>
<polygon fill="#757575" stroke="#757575" points="1619.44,-807.76 1626.05,-799.48 1615.72,-801.83 1619.44,-807.76"/>
</g>
<!-- hooks/useLedger.ts&#45;&gt;types/index.ts -->
<g id="edge47" class="edge">
<title>hooks/useLedger.ts&#45;&gt;types/index.ts</title>
<path fill="none" stroke="#757575" d="M1467.33,-938.29C1569.21,-933.68 1770.37,-919.73 1935.75,-878.48 1951.66,-874.52 1968.61,-868.3 1983.09,-862.32"/>
<polygon fill="#757575" stroke="#757575" points="1984.41,-865.57 1992.24,-858.43 1981.67,-859.12 1984.41,-865.57"/>
</g>
<!-- components/BudgetLineCard.tsx -->
<g id="node18" class="node">
<title>components/BudgetLineCard.tsx</title>
<path fill="none" stroke="#c6c5fe" d="M1746.08,-642.36C1746.08,-642.36 1549.42,-642.36 1549.42,-642.36 1545.46,-642.36 1541.5,-638.4 1541.5,-634.44 1541.5,-634.44 1541.5,-626.53 1541.5,-626.53 1541.5,-622.57 1545.46,-618.61 1549.42,-618.61 1549.42,-618.61 1746.08,-618.61 1746.08,-618.61 1750.04,-618.61 1754,-622.57 1754,-626.53 1754,-626.53 1754,-634.44 1754,-634.44 1754,-638.4 1750.04,-642.36 1746.08,-642.36"/>
<text xml:space="preserve" text-anchor="middle" x="1647.75" y="-625.06" font-family="Arial" font-size="14.00" fill="#c6c5fe">components/BudgetLineCard.tsx</text>
</g>
<!-- components/BudgetLineCard.tsx&#45;&gt;types/index.ts -->
<g id="edge16" class="edge">
<title>components/BudgetLineCard.tsx&#45;&gt;types/index.ts</title>
<path fill="none" stroke="#757575" d="M1711.79,-642.81C1725.93,-646.46 1740.69,-650.99 1754,-656.48 1841.07,-692.4 1860.76,-708.49 1935.75,-765.48 1959.82,-783.78 1984.58,-808.07 2000.98,-825.07"/>
<polygon fill="#757575" stroke="#757575" points="1998.27,-827.3 2007.7,-832.13 2003.34,-822.47 1998.27,-827.3"/>
</g>
<!-- components/BudgetLineCard.tsx&#45;&gt;utilities/calculations.ts -->
<g id="edge17" class="edge">
<title>components/BudgetLineCard.tsx&#45;&gt;utilities/calculations.ts</title>
<path fill="none" stroke="#757575" d="M1724.89,-642.81C1735.14,-646.29 1745.15,-650.76 1754,-656.48 1775.79,-670.59 1773.56,-682.39 1790,-702.48 1807.95,-724.42 1829.1,-748.99 1843.8,-765.87"/>
<polygon fill="#757575" stroke="#757575" points="1841.02,-768.01 1850.24,-773.24 1846.3,-763.41 1841.02,-768.01"/>
</g>
<!-- utilities/calculations.ts&#45;&gt;types/index.ts -->
<g id="edge78" class="edge">
<title>utilities/calculations.ts&#45;&gt;types/index.ts</title>
<path fill="none" stroke="#757575" d="M1898.31,-798.73C1910.2,-803.02 1923.58,-807.9 1935.75,-812.48 1949.79,-817.77 1965.07,-823.7 1978.72,-829.07"/>
<polygon fill="#757575" stroke="#757575" points="1977.27,-832.26 1987.85,-832.67 1979.83,-825.74 1977.27,-832.26"/>
</g>
<!-- components/BudgetLineSummary.tsx -->
<g id="node20" class="node">
<title>components/BudgetLineSummary.tsx</title>
<path fill="none" stroke="#c6c5fe" d="M1251.33,-630.36C1251.33,-630.36 1025.42,-630.36 1025.42,-630.36 1021.46,-630.36 1017.5,-626.4 1017.5,-622.44 1017.5,-622.44 1017.5,-614.53 1017.5,-614.53 1017.5,-610.57 1021.46,-606.61 1025.42,-606.61 1025.42,-606.61 1251.33,-606.61 1251.33,-606.61 1255.29,-606.61 1259.25,-610.57 1259.25,-614.53 1259.25,-614.53 1259.25,-622.44 1259.25,-622.44 1259.25,-626.4 1255.29,-630.36 1251.33,-630.36"/>
<text xml:space="preserve" text-anchor="middle" x="1138.38" y="-613.06" font-family="Arial" font-size="14.00" fill="#c6c5fe">components/BudgetLineSummary.tsx</text>
</g>
<!-- components/BudgetLineSummary.tsx&#45;&gt;hooks/useLedger.ts -->
<g id="edge19" class="edge">
<title>components/BudgetLineSummary.tsx&#45;&gt;hooks/useLedger.ts</title>
<path fill="none" stroke="#757575" d="M1150.97,-630.84C1172.79,-654.24 1221.19,-706.86 1259.25,-753.48 1306.88,-811.84 1359.13,-883.91 1384.24,-919.11"/>
<polygon fill="#757575" stroke="#757575" points="1381.33,-921.05 1389.98,-927.17 1387.04,-917 1381.33,-921.05"/>
</g>
<!-- components/BudgetLineSummary.tsx&#45;&gt;types/index.ts -->
<g id="edge20" class="edge">
<title>components/BudgetLineSummary.tsx&#45;&gt;types/index.ts</title>
<path fill="none" stroke="#757575" d="M1244.28,-606.12C1367.25,-594.11 1576.79,-581.44 1754,-609.48 1837.88,-622.76 1871.91,-612.47 1935.75,-668.48 1983.3,-710.21 2006.22,-784.66 2015.2,-822.31"/>
<polygon fill="#757575" stroke="#757575" points="2011.7,-822.69 2017.31,-831.68 2018.53,-821.16 2011.7,-822.69"/>
</g>
<!-- components/BudgetLineSummary.tsx&#45;&gt;components/BudgetLineCard.tsx -->
<g id="edge18" class="edge">
<title>components/BudgetLineSummary.tsx&#45;&gt;components/BudgetLineCard.tsx</title>
<path fill="none" stroke="#757575" d="M1259.62,-621.33C1341.34,-623.26 1448.89,-625.8 1529.89,-627.72"/>
<polygon fill="#757575" stroke="#757575" points="1529.55,-631.21 1539.63,-627.95 1529.71,-624.22 1529.55,-631.21"/>
</g>
<!-- components/BudgetLineSummary.tsx&#45;&gt;utilities/calculations.ts -->
<g id="edge21" class="edge">
<title>components/BudgetLineSummary.tsx&#45;&gt;utilities/calculations.ts</title>
<path fill="none" stroke="#757575" d="M1234.99,-630.85C1254.9,-633.39 1275.76,-636.04 1295.25,-638.48 1397.16,-651.24 1662.29,-648.25 1754,-694.48 1774.77,-704.96 1772.64,-717 1790,-732.48 1804.1,-745.06 1820.94,-757.82 1834.77,-767.77"/>
<polygon fill="#757575" stroke="#757575" points="1832.38,-770.37 1842.56,-773.31 1836.44,-764.66 1832.38,-770.37"/>
</g>
<!-- components/FilterBar.tsx -->
<g id="node21" class="node">
<title>components/FilterBar.tsx</title>
<path fill="none" stroke="#c6c5fe" d="M1213.08,-1030.36C1213.08,-1030.36 1063.67,-1030.36 1063.67,-1030.36 1059.71,-1030.36 1055.75,-1026.4 1055.75,-1022.44 1055.75,-1022.44 1055.75,-1014.53 1055.75,-1014.53 1055.75,-1010.57 1059.71,-1006.61 1063.67,-1006.61 1063.67,-1006.61 1213.08,-1006.61 1213.08,-1006.61 1217.04,-1006.61 1221,-1010.57 1221,-1014.53 1221,-1014.53 1221,-1022.44 1221,-1022.44 1221,-1026.4 1217.04,-1030.36 1213.08,-1030.36"/>
<text xml:space="preserve" text-anchor="middle" x="1138.38" y="-1013.06" font-family="Arial" font-size="14.00" fill="#c6c5fe">components/FilterBar.tsx</text>
</g>
<!-- components/FilterBar.tsx&#45;&gt;hooks/useLedger.ts -->
<g id="edge22" class="edge">
<title>components/FilterBar.tsx&#45;&gt;hooks/useLedger.ts</title>
<path fill="none" stroke="#757575" d="M1221.48,-1010.17C1234.49,-1007.14 1247.51,-1003.04 1259.25,-997.48 1278.33,-988.45 1276.5,-976.19 1295.25,-966.48 1303.85,-962.03 1313.24,-958.32 1322.76,-955.22"/>
<polygon fill="#757575" stroke="#757575" points="1323.5,-958.66 1332.06,-952.42 1321.48,-951.95 1323.5,-958.66"/>
</g>
<!-- components/FilterBar.tsx&#45;&gt;types/index.ts -->
<g id="edge23" class="edge">
<title>components/FilterBar.tsx&#45;&gt;types/index.ts</title>
<path fill="none" stroke="#757575" d="M1221.23,-1020.48C1369.71,-1021.22 1690.7,-1009.46 1935.75,-906.48 1959.27,-896.6 1982.49,-879.05 1998.57,-865.3"/>
<polygon fill="#757575" stroke="#757575" points="2000.84,-867.97 2006.03,-858.73 1996.22,-862.72 2000.84,-867.97"/>
</g>
<!-- components/Header.tsx -->
<g id="node22" class="node">
<title>components/Header.tsx</title>
<path fill="none" stroke="#c6c5fe" d="M1209.71,-988.36C1209.71,-988.36 1067.04,-988.36 1067.04,-988.36 1063.08,-988.36 1059.12,-984.4 1059.12,-980.44 1059.12,-980.44 1059.12,-972.53 1059.12,-972.53 1059.12,-968.57 1063.08,-964.61 1067.04,-964.61 1067.04,-964.61 1209.71,-964.61 1209.71,-964.61 1213.67,-964.61 1217.62,-968.57 1217.62,-972.53 1217.62,-972.53 1217.62,-980.44 1217.62,-980.44 1217.62,-984.4 1213.67,-988.36 1209.71,-988.36"/>
<text xml:space="preserve" text-anchor="middle" x="1138.38" y="-971.06" font-family="Arial" font-size="14.00" fill="#c6c5fe">components/Header.tsx</text>
</g>
<!-- components/Header.tsx&#45;&gt;hooks/useLedger.ts -->
<g id="edge24" class="edge">
<title>components/Header.tsx&#45;&gt;hooks/useLedger.ts</title>
<path fill="none" stroke="#757575" d="M1218.09,-965.59C1251.11,-961.01 1289.39,-955.71 1322.25,-951.16"/>
<polygon fill="#757575" stroke="#757575" points="1322.7,-954.63 1332.12,-949.8 1321.74,-947.7 1322.7,-954.63"/>
</g>
<!-- components/OverallSummary.tsx -->
<g id="node23" class="node">
<title>components/OverallSummary.tsx</title>
<path fill="none" stroke="#c6c5fe" d="M1238.96,-870.36C1238.96,-870.36 1037.79,-870.36 1037.79,-870.36 1033.83,-870.36 1029.88,-866.4 1029.88,-862.44 1029.88,-862.44 1029.88,-854.53 1029.88,-854.53 1029.88,-850.57 1033.83,-846.61 1037.79,-846.61 1037.79,-846.61 1238.96,-846.61 1238.96,-846.61 1242.92,-846.61 1246.88,-850.57 1246.88,-854.53 1246.88,-854.53 1246.88,-862.44 1246.88,-862.44 1246.88,-866.4 1242.92,-870.36 1238.96,-870.36"/>
<text xml:space="preserve" text-anchor="middle" x="1138.38" y="-853.06" font-family="Arial" font-size="14.00" fill="#c6c5fe">components/OverallSummary.tsx</text>
</g>
<!-- components/OverallSummary.tsx&#45;&gt;hooks/useLedger.ts -->
<g id="edge25" class="edge">
<title>components/OverallSummary.tsx&#45;&gt;hooks/useLedger.ts</title>
<path fill="none" stroke="#757575" d="M1221.76,-870.84C1234.66,-874.33 1247.58,-878.79 1259.25,-884.48 1277.97,-893.62 1276.68,-905.06 1295.25,-914.48 1303.88,-918.87 1313.3,-922.54 1322.82,-925.61"/>
<polygon fill="#757575" stroke="#757575" points="1321.56,-928.89 1332.14,-928.4 1323.56,-922.18 1321.56,-928.89"/>
</g>
<!-- components/OverallSummary.tsx&#45;&gt;utilities/calculations.ts -->
<g id="edge26" class="edge">
<title>components/OverallSummary.tsx&#45;&gt;utilities/calculations.ts</title>
<path fill="none" stroke="#757575" d="M1247.31,-863.61C1371.12,-867.11 1579.51,-865.68 1754,-828.48 1779.27,-823.1 1806.38,-812.52 1827.09,-803.34"/>
<polygon fill="#757575" stroke="#757575" points="1828.27,-806.65 1835.92,-799.32 1825.37,-800.27 1828.27,-806.65"/>
</g>
<!-- components/ReconciliationModal.tsx&#45;&gt;hooks/useLedger.ts -->
<g id="edge27" class="edge">
<title>components/ReconciliationModal.tsx&#45;&gt;hooks/useLedger.ts</title>
<path fill="none" stroke="#757575" d="M1154.54,-486.64C1179.34,-507.19 1228.85,-551.1 1259.25,-597.48 1331.18,-707.23 1377.45,-859.86 1393.28,-917.35"/>
<polygon fill="#757575" stroke="#757575" points="1389.81,-917.93 1395.8,-926.67 1396.57,-916.1 1389.81,-917.93"/>
</g>
<!-- components/ReconciliationModal.tsx&#45;&gt;types/index.ts -->
<g id="edge28" class="edge">
<title>components/ReconciliationModal.tsx&#45;&gt;types/index.ts</title>
<path fill="none" stroke="#757575" d="M1256.98,-462.79C1465.82,-443.24 1884.36,-409.92 1935.75,-451.48 1994.22,-498.78 2013.91,-744.6 2018.71,-822.07"/>
<polygon fill="#757575" stroke="#757575" points="2015.21,-822.1 2019.29,-831.87 2022.19,-821.68 2015.21,-822.1"/>
</g>
<!-- components/ReconciliationModal.tsx&#45;&gt;utilities/calculations.ts -->
<g id="edge29" class="edge">
<title>components/ReconciliationModal.tsx&#45;&gt;utilities/calculations.ts</title>
<path fill="none" stroke="#757575" d="M1239.71,-486.82C1391.99,-507.14 1672.41,-551.26 1754,-609.48 1808.83,-648.62 1841.15,-725.16 1854.57,-763.48"/>
<polygon fill="#757575" stroke="#757575" points="1851.21,-764.47 1857.71,-772.83 1857.84,-762.24 1851.21,-764.47"/>
</g>
<!-- utilities/downloadReceiptsZip.ts -->
<g id="node25" class="node">
<title>utilities/downloadReceiptsZip.ts</title>
<path fill="none" stroke="#c6c5fe" d="M1741.96,-486.36C1741.96,-486.36 1553.54,-486.36 1553.54,-486.36 1549.58,-486.36 1545.62,-482.4 1545.62,-478.44 1545.62,-478.44 1545.62,-470.53 1545.62,-470.53 1545.62,-466.57 1549.58,-462.61 1553.54,-462.61 1553.54,-462.61 1741.96,-462.61 1741.96,-462.61 1745.92,-462.61 1749.88,-466.57 1749.88,-470.53 1749.88,-470.53 1749.88,-478.44 1749.88,-478.44 1749.88,-482.4 1745.92,-486.36 1741.96,-486.36"/>
<text xml:space="preserve" text-anchor="middle" x="1647.75" y="-469.06" font-family="Arial" font-size="14.00" fill="#c6c5fe">utilities/downloadReceiptsZip.ts</text>
</g>
<!-- components/ReconciliationModal.tsx&#45;&gt;utilities/downloadReceiptsZip.ts -->
<g id="edge30" class="edge">
<title>components/ReconciliationModal.tsx&#45;&gt;utilities/downloadReceiptsZip.ts</title>
<path fill="none" stroke="#757575" d="M1257.05,-474.48C1340.37,-474.48 1451.48,-474.48 1533.73,-474.48"/>
<polygon fill="#757575" stroke="#757575" points="1533.63,-477.98 1543.63,-474.48 1533.63,-470.98 1533.63,-477.98"/>
</g>
<!-- utilities/downloadReceiptsZip.ts&#45;&gt;config/firebase.ts -->
<g id="edge79" class="edge">
<title>utilities/downloadReceiptsZip.ts&#45;&gt;config/firebase.ts</title>
<path fill="none" stroke="#757575" d="M1671.16,-462.29C1708.97,-441.71 1785.6,-400 1829.34,-376.19"/>
<polygon fill="#757575" stroke="#757575" points="1831.01,-379.27 1838.12,-371.41 1827.66,-373.12 1831.01,-379.27"/>
</g>
<!-- utilities/downloadReceiptsZip.ts&#45;&gt;types/index.ts -->
<g id="edge80" class="edge">
<title>utilities/downloadReceiptsZip.ts&#45;&gt;types/index.ts</title>
<path fill="none" stroke="#757575" d="M1704.59,-462.15C1768.36,-451.59 1872.05,-445.65 1935.75,-500.48 1985.23,-543.08 2010.5,-751.32 2017.76,-821.98"/>
<polygon fill="#757575" stroke="#757575" points="2014.25,-822.04 2018.72,-831.64 2021.21,-821.35 2014.25,-822.04"/>
</g>
<!-- components/StatusBadge.tsx -->
<g id="node26" class="node">
<title>components/StatusBadge.tsx</title>
<path fill="none" stroke="#cfffac" d="M184.33,-906.36C184.33,-906.36 7.92,-906.36 7.92,-906.36 3.96,-906.36 0,-902.4 0,-898.44 0,-898.44 0,-890.53 0,-890.53 0,-886.57 3.96,-882.61 7.92,-882.61 7.92,-882.61 184.33,-882.61 184.33,-882.61 188.29,-882.61 192.25,-886.57 192.25,-890.53 192.25,-890.53 192.25,-898.44 192.25,-898.44 192.25,-902.4 188.29,-906.36 184.33,-906.36"/>
<text xml:space="preserve" text-anchor="middle" x="96.12" y="-889.06" font-family="Arial" font-size="14.00" fill="#cfffac">components/StatusBadge.tsx</text>
</g>
<!-- favicon/wildcats&#45;logo.png -->
<g id="node28" class="node">
<title>favicon/wildcats&#45;logo.png</title>
<path fill="none" stroke="#cfffac" d="M1723.21,-1184.36C1723.21,-1184.36 1572.29,-1184.36 1572.29,-1184.36 1568.33,-1184.36 1564.38,-1180.4 1564.38,-1176.44 1564.38,-1176.44 1564.38,-1168.53 1564.38,-1168.53 1564.38,-1164.57 1568.33,-1160.61 1572.29,-1160.61 1572.29,-1160.61 1723.21,-1160.61 1723.21,-1160.61 1727.17,-1160.61 1731.12,-1164.57 1731.12,-1168.53 1731.12,-1168.53 1731.12,-1176.44 1731.12,-1176.44 1731.12,-1180.4 1727.17,-1184.36 1723.21,-1184.36"/>
<text xml:space="preserve" text-anchor="middle" x="1647.75" y="-1167.06" font-family="Arial" font-size="14.00" fill="#cfffac">favicon/wildcats&#45;logo.png</text>
</g>
<!-- components/TopNav.tsx&#45;&gt;favicon/wildcats&#45;logo.png -->
<g id="edge31" class="edge">
<title>components/TopNav.tsx&#45;&gt;favicon/wildcats&#45;logo.png</title>
<path fill="none" stroke="#757575" d="M1480.7,-1172.48C1503.56,-1172.48 1528.73,-1172.48 1552.41,-1172.48"/>
<polygon fill="#757575" stroke="#757575" points="1552.38,-1175.98 1562.38,-1172.48 1552.38,-1168.98 1552.38,-1175.98"/>
</g>
<!-- components/TotalBudgetBar.tsx -->
<g id="node29" class="node">
<title>components/TotalBudgetBar.tsx</title>
<path fill="none" stroke="#c6c5fe" d="M1233.71,-828.36C1233.71,-828.36 1043.04,-828.36 1043.04,-828.36 1039.08,-828.36 1035.12,-824.4 1035.12,-820.44 1035.12,-820.44 1035.12,-812.53 1035.12,-812.53 1035.12,-808.57 1039.08,-804.61 1043.04,-804.61 1043.04,-804.61 1233.71,-804.61 1233.71,-804.61 1237.67,-804.61 1241.62,-808.57 1241.62,-812.53 1241.62,-812.53 1241.62,-820.44 1241.62,-820.44 1241.62,-824.4 1237.67,-828.36 1233.71,-828.36"/>
<text xml:space="preserve" text-anchor="middle" x="1138.38" y="-811.06" font-family="Arial" font-size="14.00" fill="#c6c5fe">components/TotalBudgetBar.tsx</text>
</g>
<!-- components/TotalBudgetBar.tsx&#45;&gt;hooks/useLedger.ts -->
<g id="edge32" class="edge">
<title>components/TotalBudgetBar.tsx&#45;&gt;hooks/useLedger.ts</title>
<path fill="none" stroke="#757575" d="M1237.38,-828.81C1244.95,-831.21 1252.33,-834.08 1259.25,-837.48 1278.72,-847.08 1278.2,-857.06 1295.25,-870.48 1319.33,-889.44 1348.4,-908.71 1369.7,-922.22"/>
<polygon fill="#757575" stroke="#757575" points="1367.57,-925.01 1377.9,-927.37 1371.29,-919.09 1367.57,-925.01"/>
</g>
<!-- components/TotalBudgetBar.tsx&#45;&gt;utilities/calculations.ts -->
<g id="edge33" class="edge">
<title>components/TotalBudgetBar.tsx&#45;&gt;utilities/calculations.ts</title>
<path fill="none" stroke="#757575" d="M1241.93,-820.53C1364.21,-824.07 1574.61,-826.11 1754,-807.48 1768.08,-806.02 1783.05,-803.65 1797.22,-801.01"/>
<polygon fill="#757575" stroke="#757575" points="1797.75,-804.47 1806.9,-799.13 1796.41,-797.6 1797.75,-804.47"/>
</g>
<!-- components/TransactionList.tsx&#45;&gt;config/firebase.ts -->
<g id="edge35" class="edge">
<title>components/TransactionList.tsx&#45;&gt;config/firebase.ts</title>
<path fill="none" stroke="#757575" d="M635.84,-572.34C660.45,-553.81 710.45,-518.72 758.5,-500.48 867.88,-458.97 901.75,-470.48 1017.5,-453.48 1036.67,-450.67 1593.48,-388.45 1792.22,-366.26"/>
<polygon fill="#757575" stroke="#757575" points="1792.33,-369.77 1801.88,-365.18 1791.56,-362.81 1792.33,-369.77"/>
</g>
<!-- components/TransactionList.tsx&#45;&gt;hooks/useLedger.ts -->
<g id="edge36" class="edge">
<title>components/TransactionList.tsx&#45;&gt;hooks/useLedger.ts</title>
<path fill="none" stroke="#757575" d="M631.88,-596.61C676.66,-642.49 844.12,-806.47 1017.5,-879.48 1045.05,-891.08 1219.05,-916.06 1322.42,-930.19"/>
<polygon fill="#757575" stroke="#757575" points="1321.86,-933.65 1332.24,-931.53 1322.8,-926.71 1321.86,-933.65"/>
</g>
<!-- components/TransactionList.tsx&#45;&gt;types/index.ts -->
<g id="edge37" class="edge">
<title>components/TransactionList.tsx&#45;&gt;types/index.ts</title>
<path fill="none" stroke="#757575" d="M675.02,-572.13C769.06,-552.04 967.5,-514.48 1137.38,-514.48 1137.38,-514.48 1137.38,-514.48 1648.75,-514.48 1783.25,-514.48 1839.63,-516.4 1935.75,-610.48 1996.18,-669.64 2013.44,-775.13 2018.23,-821.96"/>
<polygon fill="#757575" stroke="#757575" points="2014.73,-822.14 2019.11,-831.78 2021.7,-821.5 2014.73,-822.14"/>
</g>
<!-- components/TransactionList.tsx&#45;&gt;utilities/calculations.ts -->
<g id="edge38" class="edge">
<title>components/TransactionList.tsx&#45;&gt;utilities/calculations.ts</title>
<path fill="none" stroke="#757575" d="M707.39,-596.85C787.85,-608.2 910.69,-625.35 1017.5,-639.48 1181.04,-661.13 1596.15,-684.54 1754,-732.48 1781.94,-740.97 1811.45,-756.23 1832.53,-768.37"/>
<polygon fill="#757575" stroke="#757575" points="1830.74,-771.38 1841.14,-773.44 1834.3,-765.35 1830.74,-771.38"/>
</g>
<!-- components/TransactionList.tsx&#45;&gt;components/TransactionModal.tsx -->
<g id="edge34" class="edge">
<title>components/TransactionList.tsx&#45;&gt;components/TransactionModal.tsx</title>
<path fill="none" stroke="#757575" d="M627.74,-572.53C646.73,-542.9 699.47,-464.86 758.5,-414.48 780.63,-395.6 809.1,-379.26 831.6,-367.82"/>
<polygon fill="#757575" stroke="#757575" points="833.04,-371.01 840.44,-363.43 829.93,-364.74 833.04,-371.01"/>
</g>
<!-- components/TransactionModal.tsx&#45;&gt;components/AddTransactionForm.tsx -->
<g id="edge39" class="edge">
<title>components/TransactionModal.tsx&#45;&gt;components/AddTransactionForm.tsx</title>
<path fill="none" stroke="#757575" d="M981.65,-350.48C989.62,-350.48 997.7,-350.48 1005.77,-350.48"/>
<polygon fill="#757575" stroke="#757575" points="1005.65,-353.98 1015.64,-350.48 1005.64,-346.98 1005.65,-353.98"/>
</g>
<!-- components/TransactionModal.tsx&#45;&gt;types/index.ts -->
<g id="edge40" class="edge">
<title>components/TransactionModal.tsx&#45;&gt;types/index.ts</title>
<path fill="none" stroke="#757575" d="M875.74,-338.31C890.48,-302.23 939.29,-195.38 1017.5,-147.48 1163.96,-57.8 1227.64,-88.48 1399.38,-88.48 1399.38,-88.48 1399.38,-88.48 1648.75,-88.48 1796.11,-88.48 1853.28,-132.37 1935.75,-254.48 2000.15,-349.83 2016.21,-724.35 2019.34,-822.07"/>
<polygon fill="#757575" stroke="#757575" points="2015.84,-822.1 2019.65,-831.99 2022.84,-821.89 2015.84,-822.1"/>
</g>
<!-- hooks/useRole.ts -->
<g id="node32" class="node">
<title>hooks/useRole.ts</title>
<path fill="none" stroke="#c6c5fe" d="M1190.21,-786.36C1190.21,-786.36 1086.54,-786.36 1086.54,-786.36 1082.58,-786.36 1078.62,-782.4 1078.62,-778.44 1078.62,-778.44 1078.62,-770.53 1078.62,-770.53 1078.62,-766.57 1082.58,-762.61 1086.54,-762.61 1086.54,-762.61 1190.21,-762.61 1190.21,-762.61 1194.17,-762.61 1198.12,-766.57 1198.12,-770.53 1198.12,-770.53 1198.12,-778.44 1198.12,-778.44 1198.12,-782.4 1194.17,-786.36 1190.21,-786.36"/>
<text xml:space="preserve" text-anchor="middle" x="1138.38" y="-769.06" font-family="Arial" font-size="14.00" fill="#c6c5fe">hooks/useRole.ts</text>
</g>
<!-- hooks/useRole.ts&#45;&gt;hooks/useAuth.ts -->
<g id="edge48" class="edge">
<title>hooks/useRole.ts&#45;&gt;hooks/useAuth.ts</title>
<path fill="none" stroke="#757575" d="M1155.21,-762.38C1181.95,-740.92 1235.43,-693.38 1259.25,-639.48 1320.32,-501.3 1247.16,-444.7 1295.25,-301.48 1315.29,-241.81 1358.45,-180.73 1382.43,-149.58"/>
<polygon fill="#757575" stroke="#757575" points="1385.15,-151.78 1388.56,-141.75 1379.64,-147.47 1385.15,-151.78"/>
</g>
<!-- hooks/useRole.ts&#45;&gt;hooks/useLedger.ts -->
<g id="edge49" class="edge">
<title>hooks/useRole.ts&#45;&gt;hooks/useLedger.ts</title>
<path fill="none" stroke="#757575" d="M1198.49,-777.43C1218.66,-780.32 1240.77,-785.68 1259.25,-795.48 1260.19,-795.98 1341.2,-880.06 1379.6,-919.94"/>
<polygon fill="#757575" stroke="#757575" points="1377.02,-922.31 1386.48,-927.08 1382.06,-917.45 1377.02,-922.31"/>
</g>
<!-- hooks/useRole.ts&#45;&gt;types/index.ts -->
<g id="edge50" class="edge">
<title>hooks/useRole.ts&#45;&gt;types/index.ts</title>
<path fill="none" stroke="#757575" d="M1198.51,-782.74C1227.61,-786.63 1263.23,-791.14 1295.25,-794.48 1514.66,-817.42 1569.85,-820.32 1790,-834.48 1847.74,-838.2 1913.71,-841.23 1960.15,-843.16"/>
<polygon fill="#757575" stroke="#757575" points="1959.87,-846.65 1970,-843.57 1960.15,-839.66 1959.87,-846.65"/>
</g>
<!-- index.css -->
<g id="node33" class="node">
<title>index.css</title>
<path fill="none" stroke="#cfffac" d="M292.58,-822.36C292.58,-822.36 236.17,-822.36 236.17,-822.36 232.21,-822.36 228.25,-818.4 228.25,-814.44 228.25,-814.44 228.25,-806.53 228.25,-806.53 228.25,-802.57 232.21,-798.61 236.17,-798.61 236.17,-798.61 292.58,-798.61 292.58,-798.61 296.54,-798.61 300.5,-802.57 300.5,-806.53 300.5,-806.53 300.5,-814.44 300.5,-814.44 300.5,-818.4 296.54,-822.36 292.58,-822.36"/>
<text xml:space="preserve" text-anchor="middle" x="264.38" y="-805.06" font-family="Arial" font-size="14.00" fill="#cfffac">index.css</text>
</g>
<!-- main.tsx -->
<g id="node34" class="node">
<title>main.tsx</title>
<path fill="none" stroke="#c6c5fe" d="M121.71,-822.36C121.71,-822.36 70.54,-822.36 70.54,-822.36 66.58,-822.36 62.62,-818.4 62.62,-814.44 62.62,-814.44 62.62,-806.53 62.62,-806.53 62.62,-802.57 66.58,-798.61 70.54,-798.61 70.54,-798.61 121.71,-798.61 121.71,-798.61 125.67,-798.61 129.62,-802.57 129.62,-806.53 129.62,-806.53 129.62,-814.44 129.62,-814.44 129.62,-818.4 125.67,-822.36 121.71,-822.36"/>
<text xml:space="preserve" text-anchor="middle" x="96.12" y="-805.06" font-family="Arial" font-size="14.00" fill="#c6c5fe">main.tsx</text>
</g>
<!-- main.tsx&#45;&gt;App.tsx -->
<g id="edge51" class="edge">
<title>main.tsx&#45;&gt;App.tsx</title>
<path fill="none" stroke="#757575" d="M129.84,-817.12C148.25,-821 171.61,-826.17 192.25,-831.48 202.12,-834.03 212.7,-837.01 222.59,-839.91"/>
<polygon fill="#757575" stroke="#757575" points="221.36,-843.2 231.94,-842.7 223.36,-836.49 221.36,-843.2"/>
</g>
<!-- main.tsx&#45;&gt;index.css -->
<g id="edge52" class="edge">
<title>main.tsx&#45;&gt;index.css</title>
<path fill="none" stroke="#757575" d="M129.97,-810.48C154.73,-810.48 189.02,-810.48 216.63,-810.48"/>
<polygon fill="#757575" stroke="#757575" points="216.5,-813.98 226.5,-810.48 216.5,-806.98 216.5,-813.98"/>
</g>
<!-- pages/Settings.tsx -->
<g id="node36" class="node">
<title>pages/Settings.tsx</title>
<path fill="none" stroke="#c6c5fe" d="M1193.58,-1072.36C1193.58,-1072.36 1083.17,-1072.36 1083.17,-1072.36 1079.21,-1072.36 1075.25,-1068.4 1075.25,-1064.44 1075.25,-1064.44 1075.25,-1056.53 1075.25,-1056.53 1075.25,-1052.57 1079.21,-1048.61 1083.17,-1048.61 1083.17,-1048.61 1193.58,-1048.61 1193.58,-1048.61 1197.54,-1048.61 1201.5,-1052.57 1201.5,-1056.53 1201.5,-1056.53 1201.5,-1064.44 1201.5,-1064.44 1201.5,-1068.4 1197.54,-1072.36 1193.58,-1072.36"/>
<text xml:space="preserve" text-anchor="middle" x="1138.38" y="-1055.06" font-family="Arial" font-size="14.00" fill="#c6c5fe">pages/Settings.tsx</text>
</g>
<!-- pages/Settings.tsx&#45;&gt;hooks/useLedger.ts -->
<g id="edge74" class="edge">
<title>pages/Settings.tsx&#45;&gt;hooks/useLedger.ts</title>
<path fill="none" stroke="#757575" d="M1201.69,-1056.71C1220.93,-1053.7 1241.66,-1048.47 1259.25,-1039.48 1279.12,-1029.33 1277.64,-1018.19 1295.25,-1004.48 1317.7,-987.02 1345.19,-970.29 1366.29,-958.32"/>
<polygon fill="#757575" stroke="#757575" points="1367.74,-961.52 1374.76,-953.59 1364.32,-955.41 1367.74,-961.52"/>
</g>
<!-- pages/Settings.tsx&#45;&gt;types/index.ts -->
<g id="edge75" class="edge">
<title>pages/Settings.tsx&#45;&gt;types/index.ts</title>
<path fill="none" stroke="#757575" d="M1201.86,-1057.83C1313.57,-1052.25 1554.5,-1036.46 1754,-997.48 1836.58,-981.35 1865.13,-990.22 1935.75,-944.48 1966.49,-924.57 1992.12,-890.12 2006.76,-867.56"/>
<polygon fill="#757575" stroke="#757575" points="2009.7,-869.46 2012.06,-859.13 2003.77,-865.73 2009.7,-869.46"/>
</g>
<!-- pages/Settings.tsx&#45;&gt;utilities/calculations.ts -->
<g id="edge76" class="edge">
<title>pages/Settings.tsx&#45;&gt;utilities/calculations.ts</title>
<path fill="none" stroke="#757575" d="M1201.92,-1051.15C1220.48,-1047.94 1240.78,-1044.01 1259.25,-1039.48 1486.97,-983.74 1546.88,-966.34 1754,-856.48 1782.94,-841.13 1814.16,-820.38 1835.52,-805.46"/>
<polygon fill="#757575" stroke="#757575" points="1837.49,-808.35 1843.65,-799.73 1833.46,-802.63 1837.49,-808.35"/>
</g>
<!-- pages/Settings.tsx&#45;&gt;components/TopNav.tsx -->
<g id="edge73" class="edge">
<title>pages/Settings.tsx&#45;&gt;components/TopNav.tsx</title>
<path fill="none" stroke="#757575" d="M1167.69,-1072.68C1214.36,-1092.79 1307.5,-1132.91 1360.37,-1155.68"/>
<polygon fill="#757575" stroke="#757575" points="1358.74,-1158.79 1369.3,-1159.53 1361.51,-1152.36 1358.74,-1158.79"/>
</g>
<!-- test/setup.ts -->
<g id="node37" class="node">
<title>test/setup.ts</title>
<path fill="none" stroke="#cfffac" d="M132.58,-948.36C132.58,-948.36 59.67,-948.36 59.67,-948.36 55.71,-948.36 51.75,-944.4 51.75,-940.44 51.75,-940.44 51.75,-932.53 51.75,-932.53 51.75,-928.57 55.71,-924.61 59.67,-924.61 59.67,-924.61 132.58,-924.61 132.58,-924.61 136.54,-924.61 140.5,-928.57 140.5,-932.53 140.5,-932.53 140.5,-940.44 140.5,-940.44 140.5,-944.4 136.54,-948.36 132.58,-948.36"/>
<text xml:space="preserve" text-anchor="middle" x="96.12" y="-931.06" font-family="Arial" font-size="14.00" fill="#cfffac">test/setup.ts</text>
</g>
<!-- utilities/mockData.ts -->
<g id="node38" class="node">
<title>utilities/mockData.ts</title>
<path fill="none" stroke="#c6c5fe" d="M1923.33,-1382.36C1923.33,-1382.36 1802.42,-1382.36 1802.42,-1382.36 1798.46,-1382.36 1794.5,-1378.4 1794.5,-1374.44 1794.5,-1374.44 1794.5,-1366.53 1794.5,-1366.53 1794.5,-1362.57 1798.46,-1358.61 1802.42,-1358.61 1802.42,-1358.61 1923.33,-1358.61 1923.33,-1358.61 1927.29,-1358.61 1931.25,-1362.57 1931.25,-1366.53 1931.25,-1366.53 1931.25,-1374.44 1931.25,-1374.44 1931.25,-1378.4 1927.29,-1382.36 1923.33,-1382.36"/>
<text xml:space="preserve" text-anchor="middle" x="1862.88" y="-1365.06" font-family="Arial" font-size="14.00" fill="#c6c5fe">utilities/mockData.ts</text>
</g>
<!-- utilities/mockData.ts&#45;&gt;types/index.ts -->
<g id="edge81" class="edge">
<title>utilities/mockData.ts&#45;&gt;types/index.ts</title>
<path fill="none" stroke="#757575" d="M1918.22,-1358.12C1924.87,-1354.64 1930.99,-1350.19 1935.75,-1344.48 1997.46,-1270.55 2015.26,-957.33 2019.1,-868.85"/>
<polygon fill="#757575" stroke="#757575" points="2022.59,-869.13 2019.51,-858.99 2015.6,-868.84 2022.59,-869.13"/>
</g>
<!-- vite&#45;env.d.ts -->
<g id="node39" class="node">
<title>vite&#45;env.d.ts</title>
<path fill="none" stroke="#cfffac" d="M132.21,-990.36C132.21,-990.36 60.04,-990.36 60.04,-990.36 56.08,-990.36 52.12,-986.4 52.12,-982.44 52.12,-982.44 52.12,-974.53 52.12,-974.53 52.12,-970.57 56.08,-966.61 60.04,-966.61 60.04,-966.61 132.21,-966.61 132.21,-966.61 136.17,-966.61 140.12,-970.57 140.12,-974.53 140.12,-974.53 140.12,-982.44 140.12,-982.44 140.12,-986.4 136.17,-990.36 132.21,-990.36"/>
<text xml:space="preserve" text-anchor="middle" x="96.12" y="-973.06" font-family="Arial" font-size="14.00" fill="#cfffac">vite&#45;env.d.ts</text>
</g>
</g>
</svg>
